<?xml version="1.0" encoding="UTF-8"?>
<svg id="Layer_2" data-name="Layer 2" xmlns="http://www.w3.org/2000/svg" xmlns:xlink="http://www.w3.org/1999/xlink" viewBox="0 0 458.86 529.84">
  <defs>
    <style>
      .cls-1 {
        fill: url(#radial-gradient);
      }

      .cls-2 {
        fill: #262626;
        stroke: #000;
        stroke-miterlimit: 10;
        stroke-width: 6px;
      }

      .cls-3 {
        fill: url(#radial-gradient-2);
      }

      .cls-4 {
        fill: url(#radial-gradient-3);
      }
    </style>
    <radialGradient id="radial-gradient" cx="-73.84" cy="261.52" fx="-73.84" fy="261.52" r="1016.27" gradientUnits="userSpaceOnUse">
      <stop offset=".2" stop-color="#d5d5d5"/>
      <stop offset="1" stop-color="#464646"/>
    </radialGradient>
    <radialGradient id="radial-gradient-2" cx="230.17" cy="262.84" fx="230.17" fy="262.84" r="378.95" xlink:href="#radial-gradient"/>
    <radialGradient id="radial-gradient-3" cx="230.17" cy="262.84" fx="230.17" fy="262.84" r="378.95" xlink:href="#radial-gradient"/>
  </defs>
  <g id="Layer_3" data-name="Layer 3">
    <g>
      <polygon class="cls-2" points="23.43 145.99 23.43 383.85 229.43 502.79 435.43 383.85 435.43 145.99 229.43 27.05 23.43 145.99"/>
      <path class="cls-1" d="M229.43,0L0,132.46V397.38l229.43,132.46,229.43-132.46V132.46L229.43,0Zm200.05,380.42l-200.05,115.5L29.38,380.42V149.42L229.43,33.92l200.05,115.5v231Z"/>
      <polygon class="cls-3" points="207.86 103.01 207.86 426.83 164.72 401.91 143.14 389.48 78.43 352.11 78.43 277.39 121.57 252.48 121.57 327.19 164.72 352.11 164.72 177.73 143.14 190.19 78.43 227.56 78.43 177.73 121.57 152.82 143.12 140.39 164.72 127.93 207.86 103.01"/>
      <polygon class="cls-4" points="380.43 177.73 380.43 227.56 315.72 190.19 294.14 177.73 294.14 352.11 337.29 327.19 337.29 252.48 380.43 277.39 380.43 352.11 315.72 389.48 294.14 401.91 251 426.83 251 103.01 294.14 127.93 315.74 140.39 337.29 152.82 380.43 177.73"/>
    </g>
  </g>
</svg>